<?xml version="1.0" encoding="UTF-8"?>
<svg width="131px" height="27px" viewBox="0 0 131 27" version="1.1" xmlns="http://www.w3.org/2000/svg" xmlns:xlink="http://www.w3.org/1999/xlink">
    <!-- Generator: Sketch 46.2 (44496) - http://www.bohemiancoding.com/sketch -->
    <title>Fill 1</title>
    <desc>Created with Sketch.</desc>
    <defs></defs>
    <g id="Concept-05" stroke="none" stroke-width="1" fill="none" fill-rule="evenodd">
        <g id="Desktop-Copy-6" transform="translate(-1113.000000, -645.000000)" fill="#FFFFFF">
            <path d="M1124.98148,667.184942 C1122.84695,667.240624 1122.43394,665.714372 1122.4156,664.606851 L1122.4156,656.922694 L1127.39061,656.922694 L1127.39061,652.469224 L1122.43616,652.469224 L1122.43616,645.850269 L1118.52952,645.850269 C1118.46504,645.850269 1118.35331,645.905394 1118.33775,646.045714 C1118.10873,648.083686 1117.1354,651.66183 1113.09091,653.091195 L1113.09091,656.922694 L1116.16931,656.922694 L1116.16931,665.011662 C1116.16931,667.936096 1117.99033,672.091109 1123.79804,671.993108 C1125.75747,671.960256 1127.93481,671.155647 1128.4173,670.461845 L1127.1338,666.733358 C1126.63741,666.96444 1125.68966,667.166567 1124.98148,667.184942 M1148.79654,666.711086 L1148.79654,652.469224 L1140.06051,652.469224 L1140.06051,656.651521 L1141.74368,656.651521 C1142.29733,656.651521 1142.53024,656.887614 1142.53746,657.404903 L1142.52857,663.9008 C1142.52857,664.537805 1142.06998,666.928803 1138.88819,666.989497 C1136.71864,667.030702 1136.26227,665.749452 1136.26227,664.069517 L1136.26227,652.469224 L1129.82976,652.469224 L1129.82976,664.400827 C1129.82976,667.419921 1131.20554,672.169621 1137.62859,671.995336 C1139.73644,671.937983 1142.15225,670.875565 1143.4074,669.318131 L1143.45965,671.716367 L1150.62868,671.716367 L1150.62868,667.625389 C1150.62868,667.625389 1150.04891,667.580286 1149.61422,667.551888 C1149.10782,667.518479 1148.79654,667.245079 1148.79654,666.711086 M1186.07916,666.670994 C1186.07916,666.670994 1186.07972,661.919067 1186.07972,660.832148 C1186.07972,658.751301 1186.0547,656.60085 1184.67949,654.845744 C1183.42045,653.239867 1181.33094,652.061072 1178.1586,652.213642 C1176.05186,652.315541 1173.80448,653.296106 1172.56434,654.976041 L1172.36868,655.22327 L1172.24972,655.080167 C1170.97456,653.234855 1168.93786,652.061072 1165.76552,652.213642 C1163.65878,652.315541 1161.41085,653.296106 1160.17071,654.976041 L1159.98449,652.468667 L1152.21068,652.468667 L1152.21068,656.651521 L1154.00002,656.677692 C1154.55311,656.677692 1154.78657,656.913785 1154.79435,657.430517 L1154.79491,665.615815 L1154.79491,666.670994 C1154.79491,667.205544 1154.48084,667.497876 1153.97445,667.530729 C1153.54031,667.559127 1152.66149,667.622048 1152.66149,667.622048 L1152.66149,671.713027 L1163.17406,671.716367 L1163.17406,667.622048 C1163.17406,667.622048 1162.34582,667.563582 1161.8611,667.530729 C1161.35415,667.496206 1161.0412,667.205544 1161.0412,666.670994 C1161.0412,666.670994 1161.05009,661.446324 1161.05009,660.40061 C1161.05009,659.354897 1161.91224,657.210572 1164.65323,657.210572 C1166.86392,657.210572 1167.31695,658.560867 1167.31695,660.131108 C1167.31695,661.701349 1167.31917,666.671551 1167.31917,666.671551 C1167.31917,667.206658 1167.00622,667.497876 1166.49927,667.531286 C1166.06513,667.560241 1165.18631,667.623162 1165.18631,667.623162 L1165.18631,671.713027 L1175.68776,671.713027 L1175.68776,667.622048 C1175.68776,667.622048 1174.85897,667.563582 1174.37425,667.530729 C1173.8673,667.496206 1173.5599,667.205544 1173.5599,666.670994 L1173.54323,666.670994 C1173.54323,666.670994 1173.55212,661.446324 1173.55212,660.40061 C1173.55212,659.354897 1174.322,657.210572 1177.06298,657.210572 C1179.27311,657.210572 1179.82676,658.560867 1179.82676,660.131108 L1179.82676,665.615815 L1179.82565,666.671551 C1179.82565,667.206658 1179.51214,667.497876 1179.00519,667.531286 C1178.57105,667.560241 1177.69278,667.623162 1177.69278,667.623162 L1177.69278,671.713027 L1188.20702,671.713027 L1188.20702,667.622048 C1188.20702,667.622048 1187.37878,667.563582 1186.89406,667.530729 C1186.38711,667.496206 1186.07916,667.205544 1186.07916,666.670994 M1199.94585,667.232829 C1199.07202,667.29742 1197.45389,667.149862 1196.4133,665.320698 L1196.4133,662.640153 L1196.41442,662.639039 L1196.4133,662.639039 L1196.4133,659.540319 C1196.4133,658.200046 1197.64844,657.024036 1199.56063,656.953319 C1201.49616,656.881489 1203.2099,658.205057 1203.2099,661.944124 C1203.2099,666.987827 1201.002,667.154317 1199.94585,667.232829 M1200.89805,652.193596 C1199.30882,652.263756 1197.63121,652.872364 1196.4133,653.933111 L1196.4133,645 L1194.1626,645 C1194.1626,645 1190.48275,646.309648 1187.63392,646.659889 L1187.5411,650.750311 L1189.34211,650.752538 C1189.8952,650.752538 1190.13311,650.988631 1190.14033,651.50592 L1190.14033,671.699106 L1195.28712,671.693538 L1196.02197,670.036989 C1196.17984,670.124967 1198.54061,672.348362 1202.31106,671.90346 C1207.05873,671.342739 1209.5518,667.578059 1209.5518,661.865055 C1209.5518,658.868234 1208.63351,651.855048 1200.89805,652.193596 M1240.45362,655.907049 C1240.24406,651.343884 1234.07559,651.133962 1230.85044,654.215977 L1230.26233,652.449178 L1222.80592,652.449178 L1222.80592,656.630919 L1224.36958,656.628691 C1224.92322,656.628691 1225.12834,656.864784 1225.13612,657.381516 L1225.13612,666.65429 C1225.13612,667.18884 1224.82094,667.481172 1224.3151,667.514024 C1223.88041,667.542979 1223.00659,667.605343 1223.00659,667.605343 L1223.00659,671.696322 L1233.50527,671.696322 L1233.50527,667.605343 C1233.50527,667.605343 1232.63756,667.542979 1232.20342,667.514024 C1231.69647,667.481172 1231.38241,667.18884 1231.38241,666.65429 L1231.37963,660.366644 C1231.37963,659.188964 1231.64978,657.221708 1233.72595,656.71834 C1233.9822,658.685596 1235.87882,659.273044 1236.80434,659.273044 C1239.14066,659.273044 1240.45362,657.520165 1240.45362,655.907049 M1218.80311,666.65429 L1218.80867,645 L1216.53517,645 C1216.53517,645 1212.75749,646.368671 1210.03596,646.659889 L1210.03596,650.750311 L1211.75415,650.750311 C1212.30724,650.750311 1212.53848,650.985847 1212.54515,651.503136 L1212.54515,666.65429 C1212.54515,667.18884 1212.23275,667.481172 1211.72636,667.514024 C1211.29167,667.542979 1210.31946,667.6059 1210.31946,667.6059 L1210.31946,671.696322 L1221.02992,671.696322 L1221.02992,667.6059 C1221.02992,667.6059 1220.0566,667.542979 1219.62357,667.514024 C1219.11607,667.481172 1218.80311,667.18884 1218.80311,666.65429 M1239.41692,664.553953 C1237.33798,664.553953 1235.65314,666.207161 1235.65314,668.246803 C1235.65314,670.284219 1237.33798,671.937983 1239.41692,671.937983 C1241.49698,671.937983 1243.18182,670.284219 1243.18182,668.246803 C1243.18182,666.207161 1241.49698,664.553953 1239.41692,664.553953" id="Fill-1"></path>
        </g>
    </g>
</svg>